<?xml version="1.0" standalone="no"?>
<svg version="1.0" xmlns="http://www.w3.org/2000/svg"
 width="1024.000000pt" height="1024.000000pt" viewBox="0 0 1024.000000 1024.000000"
 preserveAspectRatio="xMidYMid meet">

<g transform="translate(0.000000,1024.000000) scale(0.100000,-0.100000)"
fill="#FFF" stroke="none">
<path d="M1080 9861 c-213 -47 -379 -140 -527 -294 -43 -45 -94 -107 -114
-137 -167 -253 -217 -557 -139 -839 11 -39 326 -836 700 -1771 l680 -1700
-681 -1702 c-393 -983 -692 -1743 -706 -1798 -21 -80 -25 -118 -25 -240 -1
-125 3 -159 26 -245 47 -180 129 -325 259 -462 130 -136 277 -224 462 -279 70
-20 119 -27 223 -31 149 -6 244 5 361 44 42 13 324 144 626 290 303 146 764
369 1025 496 261 126 543 262 625 302 935 451 5446 2635 5555 2691 96 48 174
96 229 141 331 266 460 713 322 1119 -94 278 -262 464 -550 608 -106 54 -5747
2785 -6136 2971 -71 35 -438 212 -815 395 -786 381 -831 402 -943 431 -118 31
-339 36 -457 10z m315 -680 c44 -15 7417 -3580 7613 -3681 l77 -39 -3404 2
-3403 2 -663 1657 c-401 1004 -664 1674 -667 1702 -18 158 92 318 252 367 45
13 144 9 195 -10z m7613 -4441 c-209 -107 -7571 -3665 -7618 -3682 -225 -81
-473 123 -440 363 5 35 234 619 660 1684 359 897 656 1640 661 1653 l9 22
3402 0 3403 -1 -77 -39z"/>
</g>
</svg>
